<?xml version="1.0" encoding="UTF-8"?>
<svg xmlns="http://www.w3.org/2000/svg" style="stroke-dasharray:none; shape-rendering:auto; font-family:'Arial'; text-rendering:auto; fill-opacity:1; color-interpolation:auto; color-rendering:auto; font-size:12; fill:black; stroke:black; image-rendering:auto; stroke-miterlimit:10; stroke-linecap:square; stroke-linejoin:miter; font-style:normal; stroke-width:1; stroke-dashoffset:0; font-weight:normal; stroke-opacity:1;" contentScriptType="text/ecmascript" preserveAspectRatio="xMidYMid meet" zoomAndPan="magnify" version="1.0" contentStyleType="text/css" xml:xlink="http://www.w3.org/1999/xlink" width="620" height="563"><rect x="201" y="40" width="419" height="523" ry="0" rx="0" style="stroke:#000000; fill:#FFFFFF" /><rect x="231" y="430" width="389" height="133" ry="0" rx="0" style="stroke:#000000; fill:#C0C0C0" /><g componentSequence="4"><text x="-496" y="238" transform="rotate(270)" text-anchor="middle" style="font-weight:bold;font-size:10px;stroke:none; fill:#434343"><tspan dy="14" x="-496">Validação do colabora...</tspan></text></g><rect x="231" y="300" width="389" height="130" ry="0" rx="0" style="stroke:#000000; fill:#C0C0C0" /><g componentSequence="3"><text x="-365" y="238" transform="rotate(270)" text-anchor="middle" style="font-weight:bold;font-size:10px;stroke:none; fill:#434343"><tspan dy="14" x="-365">Assinatura do RH</tspan></text></g><rect x="231" y="170" width="389" height="130" ry="0" rx="0" style="stroke:#000000; fill:#C0C0C0" /><g componentSequence="2"><text x="-235" y="238" transform="rotate(270)" text-anchor="middle" style="font-weight:bold;font-size:10px;stroke:none; fill:#434343"><tspan dy="14" x="-235">Atividade inicial</tspan></text></g><rect x="231" y="40" width="389" height="130" ry="0" rx="0" style="stroke:#000000; fill:#C0C0C0" /><g componentSequence="1"><text x="-105" y="238" transform="rotate(270)" text-anchor="middle" style="font-weight:bold;font-size:10px;stroke:none; fill:#434343"><tspan dy="14" x="-105">Assinatura do Gestor...</tspan></text></g><g componentSequence="5"><text x="-301" y="208" transform="rotate(270)" text-anchor="middle" style="font-weight:bold;font-size:10px;stroke:none; fill:#434343"><tspan dy="14" x="-301">Pool</tspan></text></g><g sequence="1"><ellipse cx="393" cy="57" rx="17" ry="17" stroke-width="1" style="fill:url(#linearGradient66FF6696FF96B6FFB6_1770725068);" stroke="336633" /></g><g sequence="4"><rect x="341" y="352" width="106" height="70" ry="5" rx="5" style="fill:url(#linearGradientF8FBFEEDF5FCDEEDFAD4E7F8E2E5E9_1733098893);" stroke="191970" /></g><g componentSequence="4"><text x="394" y="367" text-anchor="middle" style="font-weight:bold;font-size:10px;stroke:none; fill:#333399"><tspan dy="14" x="394">4. Assinatura do</tspan><tspan dy="14" x="394">RH</tspan></text></g><g sequence="8"><rect x="341" y="221" width="106" height="84" ry="5" rx="5" style="fill:url(#linearGradientF8FBFEEDF5FCDEEDFAD4E7F8E2E5E9_1668511164);" stroke="191970" /></g><g componentSequence="8"><text x="394" y="236" text-anchor="middle" style="font-weight:bold;font-size:10px;stroke:none; fill:#333399"><tspan dy="14" x="394">8. Assinatura do</tspan><tspan dy="14" x="394">Gestor imediato</tspan></text></g><g sequence="10"><polygon points=" 491 242 521 212 551 242 521 272 491 242" style="fill:url(#linearGradientFAFBFCFFFFCC_645003190);" stroke="000000" /></g><g componentSequence="10"><text x="521" y="282" text-anchor="middle" style="font-weight:bold;font-size:10px;stroke:none; fill:#333399"><tspan dy="14" x="521">10. De</tspan><tspan dy="14" x="521">acordo?</tspan></text></g><g sequence="14"><polygon points=" 501 366 531 336 561 366 531 396 501 366" style="fill:url(#linearGradientFAFBFCFFFFCC_398323914);" stroke="000000" /></g><g componentSequence="14"><text x="531" y="406" text-anchor="middle" style="font-weight:bold;font-size:10px;stroke:none; fill:#333399"><tspan dy="14" x="531">14. De</tspan><tspan dy="14" x="531">acordo?</tspan></text></g><g sequence="17"><rect x="341" y="462" width="106" height="84" ry="5" rx="5" style="fill:url(#linearGradientF8FBFEEDF5FCDEEDFAD4E7F8E2E5E9_387831589);" stroke="191970" /></g><g componentSequence="17"><text x="394" y="477" text-anchor="middle" style="font-weight:bold;font-size:10px;stroke:none; fill:#333399"><tspan dy="14" x="394">17. Validação do</tspan><tspan dy="14" x="394">colaborador /</tspan><tspan dy="14" x="394">professor</tspan></text></g><g sequence="19"><ellipse cx="524" cy="504" rx="17" ry="17" stroke-width="3" style="fill:url(#linearGradientFF6666FF9696FFB6B6_1866174191);" stroke="993333" /></g><g sequence="28"><polygon points=" 364 130 394 100 424 130 394 160 364 130" style="fill:url(#linearGradientFAFBFCFFFFCC_1180567801);" stroke="000000" /></g><g componentSequence="28"><text x="394" y="170" text-anchor="middle" style="font-weight:bold;font-size:10px;stroke:none; fill:#333399"><tspan dy="14" x="394">Gestor</tspan><tspan dy="14" x="394">Aprova?</tspan></text></g><g componentSequence="11"><text x="479" y="263" style="font-size:10px;font-weight:none;stroke:none; fill:#333399" text-anchor="left" /></g><g componentSequence="12"><text x="470" y="322" style="font-size:10px;font-weight:none;stroke:none; fill:#333399" text-anchor="left" /></g><g componentSequence="13"><text x="576" y="90" style="font-size:10px;font-weight:none;stroke:none; fill:#333399" text-anchor="left" /></g><g componentSequence="15"><text x="484" y="387" style="font-size:10px;font-weight:none;stroke:none; fill:#333399" text-anchor="left" /></g><g componentSequence="16"><text x="577" y="135" style="font-size:10px;font-weight:none;stroke:none; fill:#333399" text-anchor="left" /></g><g componentSequence="18"><text x="482" y="437" style="font-size:10px;font-weight:none;stroke:none; fill:#333399" text-anchor="left" /></g><g componentSequence="20"><text x="487" y="504" style="font-size:10px;font-weight:none;stroke:none; fill:#333399" text-anchor="left" /></g><g componentSequence="21"><text x="404" y="442" style="font-size:10px;font-weight:none;stroke:none; fill:#333399" text-anchor="left" /></g><g componentSequence="22"><text x="303" y="383" style="font-size:10px;font-weight:none;stroke:none; fill:#333399" text-anchor="left" /></g><g componentSequence="29"><text x="403" y="87" style="font-size:10px;font-weight:none;stroke:none; fill:#333399" text-anchor="left" /></g><g componentSequence="30"><text x="404" y="211" style="font-size:10px;font-weight:none;stroke:none; fill:#333399" text-anchor="left" /></g><g componentSequence="31"><text x="303" y="259" style="font-size:10px;font-weight:none;stroke:none; fill:#333399" text-anchor="left" /></g><path style="fill:none; stroke:#000000;stroke-width:1" d="M393.0 74.0 L393.0 99.0" /><polygon style="fill:#000000; stroke:#000000;" points=" 398 89 393 99 388 89 393 91" /><path style="fill:none; stroke:#000000;stroke-width:1" d="M551.0 262.0 L566.0 262.0 L566.0 236.0 L566.0 210.0 L566.0 57.0 L411.0 57.0" /><polygon style="fill:#000000; stroke:#000000;" points=" 421 62 411 57 421 52 419 57" /><path style="fill:none; stroke:#000000;stroke-width:1" d="M561.0 366.0 L567.0 362.0 L567.0 57.0 L411.0 57.0" /><polygon style="fill:#000000; stroke:#000000;" points=" 421 62 411 57 421 52 419 57" /><path style="fill:none; stroke:#000000;stroke-width:1" d="M447.0 387.0 L500.0 387.0" /><polygon style="fill:#000000; stroke:#000000;" points=" 490 382 500 387 490 392 492 387" /><path style="fill:none; stroke:#000000;stroke-width:1" d="M490.0 293.0 L430.0 351.0" /><polygon style="fill:#000000; stroke:#000000;" points=" 441 348 430 351 434 340 436 345" /><path style="fill:none; stroke:#000000;stroke-width:1" d="M394.0 461.0 L394.0 422.0" /><polygon style="fill:#000000; stroke:#000000;" points=" 389 432 394 422 399 432 394 430" /><path style="fill:none; stroke:#000000;stroke-width:1" d="M363.0 152.0 L293.0 155.0 L293.0 283.0 L293.0 386.0 L340.0 386.0" /><polygon style="fill:#000000; stroke:#000000;" points=" 330 381 340 386 330 391 332 386" /><path style="fill:none; stroke:#000000;stroke-width:1" d="M447.0 263.0 L490.0 263.0" /><polygon style="fill:#000000; stroke:#000000;" points=" 480 258 490 263 480 268 482 263" /><path style="fill:none; stroke:#000000;stroke-width:1" d="M340.0 503.0 L292.0 502.0 L293.0 377.0 L293.0 320.0 L293.0 262.0 L340.0 262.0" /><polygon style="fill:#000000; stroke:#000000;" points=" 330 257 340 262 330 267 332 262" /><path style="fill:none; stroke:#000000;stroke-width:1" d="M394.0 202.0 L394.0 220.0" /><polygon style="fill:#000000; stroke:#000000;" points=" 399 210 394 220 389 210 394 212" /><path style="fill:none; stroke:#000000;stroke-width:1" d="M500.0 413.0 L444.0 461.0" /><polygon style="fill:#000000; stroke:#000000;" points=" 455 458 444 461 448 451 450 456" /><path style="fill:none; stroke:#000000;stroke-width:1" d="M447.0 504.0 L506.0 504.0" /><polygon style="fill:#000000; stroke:#000000;" points=" 496 499 506 504 496 509 498 504" /><defs><linearGradient xmlns:xlink="http://www.w3.org/1999/xlink" xlink:href="#linearGradient66FF6696FF96B6FFB6" id="linearGradient66FF6696FF96B6FFB6_1770725068" x1="0" y1="40.0" x2="0" y2="75.0" gradientUnits="userSpaceOnUse" xlink:type="simple" xlink:actuate="onLoad" xlink:show="other" /><linearGradient id="linearGradient66FF6696FF96B6FFB6"><stop style="stop-color:#66FF66;stop-opacity:1;" offset="0.0" id="stop66FF66" /><stop style="stop-color:#96FF96;stop-opacity:1;" offset="0.5" id="stop96FF96" /><stop style="stop-color:#B6FFB6;stop-opacity:1;" offset="1.0" id="stopB6FFB6" /></linearGradient><linearGradient xmlns:xlink="http://www.w3.org/1999/xlink" xlink:href="#linearGradientF8FBFEEDF5FCDEEDFAD4E7F8E2E5E9" id="linearGradientF8FBFEEDF5FCDEEDFAD4E7F8E2E5E9_1733098893" x1="0" y1="352.0" x2="0" y2="458.0" gradientUnits="userSpaceOnUse" xlink:type="simple" xlink:actuate="onLoad" xlink:show="other" /><linearGradient id="linearGradientF8FBFEEDF5FCDEEDFAD4E7F8E2E5E9"><stop style="stop-color:#F8FBFE;stop-opacity:1;" offset="0.0" id="stopF8FBFE" /><stop style="stop-color:#EDF5FC;stop-opacity:1;" offset="0.25" id="stopEDF5FC" /><stop style="stop-color:#DEEDFA;stop-opacity:1;" offset="0.5" id="stopDEEDFA" /><stop style="stop-color:#D4E7F8;stop-opacity:1;" offset="0.75" id="stopD4E7F8" /><stop style="stop-color:#E2E5E9;stop-opacity:1;" offset="1.0" id="stopE2E5E9" /></linearGradient><linearGradient xmlns:xlink="http://www.w3.org/1999/xlink" xlink:href="#linearGradientF8FBFEEDF5FCDEEDFAD4E7F8E2E5E9" id="linearGradientF8FBFEEDF5FCDEEDFAD4E7F8E2E5E9_1668511164" x1="0" y1="221.0" x2="0" y2="327.0" gradientUnits="userSpaceOnUse" xlink:type="simple" xlink:actuate="onLoad" xlink:show="other" /><linearGradient xmlns:xlink="http://www.w3.org/1999/xlink" xlink:href="#linearGradientFAFBFCFFFFCC" id="linearGradientFAFBFCFFFFCC_645003190" x1="0" y1="212.0" x2="0" y2="272.0" gradientUnits="userSpaceOnUse" xlink:type="simple" xlink:actuate="onLoad" xlink:show="other" /><linearGradient id="linearGradientFAFBFCFFFFCC"><stop style="stop-color:#FAFBFC;stop-opacity:1;" offset="0.0" id="stopFAFBFC" /><stop style="stop-color:#FFFFCC;stop-opacity:1;" offset="1.0" id="stopFFFFCC" /></linearGradient><linearGradient xmlns:xlink="http://www.w3.org/1999/xlink" xlink:href="#linearGradientFAFBFCFFFFCC" id="linearGradientFAFBFCFFFFCC_398323914" x1="0" y1="336.0" x2="0" y2="396.0" gradientUnits="userSpaceOnUse" xlink:type="simple" xlink:actuate="onLoad" xlink:show="other" /><linearGradient xmlns:xlink="http://www.w3.org/1999/xlink" xlink:href="#linearGradientF8FBFEEDF5FCDEEDFAD4E7F8E2E5E9" id="linearGradientF8FBFEEDF5FCDEEDFAD4E7F8E2E5E9_387831589" x1="0" y1="462.0" x2="0" y2="568.0" gradientUnits="userSpaceOnUse" xlink:type="simple" xlink:actuate="onLoad" xlink:show="other" /><linearGradient xmlns:xlink="http://www.w3.org/1999/xlink" xlink:href="#linearGradientFF6666FF9696FFB6B6" id="linearGradientFF6666FF9696FFB6B6_1866174191" x1="0" y1="487.0" x2="0" y2="522.0" gradientUnits="userSpaceOnUse" xlink:type="simple" xlink:actuate="onLoad" xlink:show="other" /><linearGradient id="linearGradientFF6666FF9696FFB6B6"><stop style="stop-color:#FF6666;stop-opacity:1;" offset="0.0" id="stopFF6666" /><stop style="stop-color:#FF9696;stop-opacity:1;" offset="0.5" id="stopFF9696" /><stop style="stop-color:#FFB6B6;stop-opacity:1;" offset="1.0" id="stopFFB6B6" /></linearGradient><linearGradient xmlns:xlink="http://www.w3.org/1999/xlink" xlink:href="#linearGradientFAFBFCFFFFCC" id="linearGradientFAFBFCFFFFCC_1180567801" x1="0" y1="100.0" x2="0" y2="160.0" gradientUnits="userSpaceOnUse" xlink:type="simple" xlink:actuate="onLoad" xlink:show="other" /></defs></svg>
